<svg xmlns="http://www.w3.org/2000/svg" xmlns:xlink="http://www.w3.org/1999/xlink" viewBox="0 0 1122 1122"><defs><style>.cls-1{fill:url(#Degradado_sin_nombre_323);}.cls-2{fill:url(#Degradado_sin_nombre_323-2);}</style><linearGradient id="Degradado_sin_nombre_323" x1="232.06" y1="505.25" x2="889.95" y2="505.25" gradientUnits="userSpaceOnUse"><stop offset="0" stop-color="#324891"/><stop offset="0.58" stop-color="#3f68ac"/><stop offset="1" stop-color="#467abb"/></linearGradient><linearGradient id="Degradado_sin_nombre_323-2" x1="155.18" y1="774.48" x2="966.82" y2="774.48" xlink:href="#Degradado_sin_nombre_323"/></defs><g id="Object"><path class="cls-1" d="M250.51,295.76a18.45,18.45,0,0,0-18.45,18.47V696.3a18.44,18.44,0,0,0,18.45,18.45h621A18.47,18.47,0,0,0,890,696.3V314.23a18.48,18.48,0,0,0-18.47-18.47Zm596,377.68H274.32V335.87H846.46Z"/><path class="cls-2" d="M883.35,722.72H238.65a17,17,0,0,0-11.7,4.8L162,788.6c-13.44,12.62-5.68,37.64,11.68,37.64H948.33c17.35,0,25.11-25,11.68-37.64l-65-61.08A17,17,0,0,0,883.35,722.72Z"/></g></svg>